<svg xmlns="http://www.w3.org/2000/svg" width="100" height="100" viewBox="0 0 100 99.999995"><text style="line-height:125%" x="-282.85715" y="315.2193" font-size="40" font-family="sans-serif" letter-spacing="0" word-spacing="0" transform="translate(0 -952.362)"/><text style="line-height:125%" x="299" y="247.36218" font-size="90" font-family="sans-serif" letter-spacing="0" word-spacing="0" transform="translate(0 -952.362)"/><text style="line-height:125%" x="339.41125" y="206.66248" font-size="40" font-family="sans-serif" letter-spacing="0" word-spacing="0" transform="translate(0 -952.362)"/><text style="line-height:125%" x="123" y="735.36224" font-size="40" font-family="sans-serif" letter-spacing="0" word-spacing="0" transform="translate(0 -952.362)"/><text style="line-height:125%;-inkscape-font-specification:'Papyrus, Normal';text-align:start" x="98" y="844.36224" font-size="90" font-family="Papyrus" letter-spacing="0" word-spacing="0" transform="translate(0 -952.362)"/><text style="line-height:125%" x="288" y="825.36224" font-size="40" font-family="sans-serif" letter-spacing="0" word-spacing="0" transform="translate(0 -952.362)"/><text style="line-height:125%;-inkscape-font-specification:'Papyrus, Normal';text-align:start" x="158" y="825.36224" font-size="60" font-family="Papyrus" letter-spacing="0" word-spacing="0" transform="translate(0 -952.362)"><tspan x="0" y="0"/></text><text style="line-height:125%;-inkscape-font-specification:'Papyrus, Normal';text-align:start" x="264" y="808.36224" font-size="90" font-family="Papyrus" letter-spacing="0" word-spacing="0" transform="translate(0 -952.362)"/><text style="line-height:125%" x="-273" y="600.36224" font-size="40" font-family="sans-serif" letter-spacing="0" word-spacing="0" transform="translate(0 -952.362)"/><path d="M1 .99921h100v99.99999H1z"/><path d="M12.00813 17.379683q.54721-.269533 2.232622-1.785638.547212-.471684 1.42275-.471684.87554 0 1.948074 1.078117l.85365.16847q1.16009.26952 1.926186.370595l2.626616.303228.941203.168456h.021893q.109443 0 .459658-.033745 1.225755-.202152 1.816744-.202152.30644 0 .941205.067368l3.064383.26952q.087555.033746.87554-.370596.15322-.101114.28455-.101114.043774 0 .590988.235836.984982.101114 1.31331.269533.218884.101113.875538.471672.875538-.774888 1.400862-.774888.15322 0 1.597858.437975l.70043-.20214q.700432.235836.787986.235836l.612877-.033745 1.554082.033746 1.181977-.101113.41588.033746q.744208.033746.809873.067368l.963093.471673.109443-.101113.284548-.909673q.70043.134772 1.00687.134772l1.44464-.404293h.043774q.065667.168456.481546 1.61718l.372102-.97689q.021892-.101114.809874-.101114.043775 0 1.181977-.875964.087555-.06737.15322-.06737.196997 0 .262662.23585l.481546 1.617168 1.1382-1.8867.481546-.168457.547212-.33691q.372105.067366.525324.606443l-.459658.606433-.087554.57276q-.459658.303216-.547212.471672l-.525322 1.078117q-.087555.168456-.5691.539065-.503436.370608-1.00687.370608-.175108 0-.45966-.067367-.744206-.235835-.919314-.235835-.196996 0-.41588.033745-.59099.13476-.700432.13476-.26266 0-.919315-.235836-.5691-.168456-1.028758-.168456-.087554 0-1.663524.303216-.39399.067368-.744207.067368-.109442 0-2.42962-.202153l-.85365.202152-1.400862-1.246586-.634764 1.246586-.43777-.23585-.59099-.067366-1.028756-.13476-.262662.13476q-.28455.134772-.547212.134772h-.021892q-.15322 0-1.42275-.168456-.28455-.033746-.525323-.033746-.350214 0-.612876.235836.13133.269532.13133.30323 0 .235835-.787984 1.24657-.109442.13476-.678543 1.65088-.087553.235835-.5691 1.145496-.372103.70752-.372103.943356 0 .943357 1.357084 1.68456.656654.37061.656654.640142 0 .033746-.262662.673825-.13133.303217-.196996.943357h-.372103l.043776 1.078117.525323.43799q.218884.640127.218884.943355 0 .336912-.087554 1.280268-.043775.471673-.043775 1.010737 0 .572748.15322 3.200666l.065666 1.684563q.021893 1.044433.065668 1.751953.043775.875965.043775.97704 0 .673825-.26266.84228-.021893.033747-.30644.168457-.175108.067368-.43777.404293v.202152l-.065666.101113.503435.64013v1.111813l.612877.437988q-1.904297 1.549802-1.904297 3.065907 0 1.41503 1.83863 2.459462-.28455.47167-.28455.808596 0 .303216.087555 1.48241.021892.33691.021892.70752 0 .235836-.021892.707508l.240773.168456q-.153218 1.41504-.153218 1.954094v.033745l.065667 1.313965q.043774 1.785637.065666 2.055157.02189.168456.218884 1.111813-.328327 1.246585-.328327 1.61718 0 .269533.021892.707522l-.065667.101113q-.787985.168456-.787985.808584v.033746l.13133.741205.72232-.303216q.021892.673823.087554.90966.13133.640128.13133.70752 0 .033746-.087553.606432-.021892.202152-.021892.437988 0 .269533.109443 2.863767.02189.437976-.218885 3.09959-.043775.572748-.043775 1.078117 0 .303228.28455 1.886713-.13133 1.246586-.218885 1.381345-.13133.13476-.766096.404293-.41588.202152-.59099.437988l-.328326.539065q-.525323 0-.59099.067367-1.26953 1.21289-1.663522 1.48241-.372104-.673825-.372104-1.1118 0-.134774.196997-1.21289l-.021893-.977053.15322-.943357.087554-1.785638.087555-1.010736q0-1.212876.087553-1.549788.13133-.471685.656654-1.14551-.43777-.70752-.43777-1.179192v-.033746l.065668-1.48241v-1.751952q.065667-1.313953.065667-2.055158l.328326-.606444q-.021892-.37061-.021892-.539065 0-.303216.065668-.943356l-.350215-.50537h-.087553l.13133-.70752v-5.491673q-.02189-.269532.087554-1.145496.109442-.875976.109442-1.448724 0-.202153-.13133-1.28027l-.109443-1.5498q-.043775-.64013-.043775-.741205 0-.067367.28455-1.347648.02189-.7749.065667-.875977.065667-.269532.590988-.404292v-.606445l-.70043.235836q-.15322-.84228-.15322-1.111812 0-.303217.109443-1.044433.043775-.303217.109442-.943358-.306438-.168456-.503435-.336912l.065667-.808585V35.77522q0-.572748.831762-1.145497.831762-.606444.831762-.909672 0-.168456-.85365-.90966-.372105-.303216-.87554-1.010737.503435-.370608.503435-.70752 0-.033746-.240773-1.246573-.021892-.101114-.021892-.269533 0-.370608.043775-.84228-.590988-1.010737-.590988-2.425766 0-.336924.328326-1.111812-.175107-.875977-.240773-1.14551l-.043775-.168455q.021892-.90966 1.948074-2.223626.196996-.13476.196996-.269532 0-.101113-2.035628-.774888-.240773-.067368-.240773-.471685 0-.13476.087553-.404292-.70043-.471685-2.12318-.539065-.43777 0-1.29142-.101113h-.065668q-.087554 0-1.050646.23585l-1.685413-.202154q-.087554 0-.459658.235836-.350216-.404292-.634767-.404292h-.54721l-1.160088-.606444-.350216.235836-.415882.269532-.744208.539064q-.919315-.303228-1.028757-.303228-.196997 0-1.16009.202152h-1.050646l-.787985.033746q-.196996 0-1.1382-.336912-.065667-.033746-.26266-.033746-.372106 0-1.29142.168456-.021893-.067367-.043776-.168456-.043776-.067367-.043776-.101113 0-.235837.30644-.707522.175106-.235836.372103-.774888zm43.478704 6.284066q.330128 0 .854448-.953482h.58258q.349546.032877.427223.032877l1.04864-.065754q.116516 0 .951546.624683.038843.032877.097097.032877.05826 0 .388385-.295908h.213613l3.631405-.197265q.155354-.032877.466062.328786.155355.197265.52432.39453l.330128-.558916q1.06806 0 2.19438.263018l.05825-.098632q.33013.756192.621418.756192.27187 0 .52432-.78907.54374.065756.951545.065756l2.7187.591818.854447.032877q.640837.26302 1.126318.328774.077677.65757.233032.723313.077677.098632.77677.197277.213613-.723315.446644-.723315.038843 0 .388386.197265l.660256.032877q.194193 0 .660254.493173.62142.657572.79619.657572l.407806-.197265 1.786574 1.282254q1.74774.624684 1.961344.887715.252455.328786.29129.328786l.38839.098633q.446644.55894.660257.789094l.81561 1.084977.873862.920603q.73794.953468 1.184576 1.315132-.11651.723325-.11651 1.01922 0 .85485.330123.85485.271873 0 .601997-.230154.368967.756204 1.02923 1.808304.446636.756204.407802.95348l.135927.986346.485485 2.2686.03877 1.512408.330132 2.038458.058276 2.498765.135936 1.0521-.097094 2.498766q-.03877 1.906937-.174778 2.926172-.11651.854836-.446643 2.367244H88.752q-.019424.131508-.019424.230153 0 .065754.213605.723326.019426.09863.019426.263018 0 .460296-.135928 1.052113-.15536.657573-.17478.789082-.291288 1.545285-.563153 1.545285-.233038 0-.485485-1.019235l-.427226 1.183622.135936.394553-.097094.65756.34954.854836q-.310706.69045-.835017 2.597385l-.485495 1.052113-.0777.394554-.873862 1.545285-.135936.591804-.563162 1.117855q-.310707.624693-.4078.624693-.097095 0-.271874-.295908h-.29128l-.252456-.558928q-.34955.657572-.34955 1.019236 0 .295896.271874.854836-.46606.75619-1.184576 1.545272-.40781.460307-.64084.95348-.601996-.42743-1.24283-.55894l-.077678.394553q.252448.591805.330123.986346-.368964.624683-1.320505 1.742563l-1.320513 1.150732q-.15536.13151-.64084.92059-.446642-.69045-.815608-.723314-.135936 1.052102-.349547 1.34801-.097097.098632-1.203996.591805-.116516.032877-.29129.263044-.718513 1.01922-.75735 1.01922h-.427226q-.077677 0-.54374.591806-.097096.13151-.854447.55894-.135936.098632-.349548.26302-1.145738.920602-1.63122 1.05211-.52432.065756-1.281673.460297l-1.86425 1.08499-1.281673.197276-.485482.263018-.330128.065755-.718513.1644h-.427224l-.81561.328773-1.106898.065754-1.534123.197264-.349547-.032877q-.5049-.032877-.77677-.098632l-2.951732.197277q-.019417 0-.174773.098632-.05825.032877-.116515.032877-.504902 0-.504902-.821958 0-.26303.116516-.39454.135935-.13151.893286-.624683.79619-.493186 1.12632-.887726.077676-.887714.388384-1.57815-.05825-1.052113-.05825-1.545286l.25245-2.498753v-.032878q0-.361663-.058252-.78908l-.077677-.460296q0-.09863.27187-2.071347.038843-.295896.038843-.558915 0-.328786-.23303-1.216512l1.59238-.756204-1.534124-4.175548.038842-.13151q.737933-.263043.737933-.854848 0-.361663-.27187-1.019223-.174774.13151-.330128.13151-.29129 0-.29129-1.084978l.038842-.82196v-4.43859q0-.460296-.038842-.78907-.019425-.328798-.019425-.394552 0-.52605.330128-1.413776l-.330128-.394528v-.953482l.310708-.52605q-.368965-.624695-.368965-1.47953V52.10354q0-1.939825-.058252-2.76177-.019425-.46031-.019425-.756217 0-.295896.116517-.723327.23303.065755.407805.065755.25245 0 .25245-.361663 0-.098632-.233032-.493172-.174773-.427418-.349546-.65756-.485482-.065754-.52432-.756216l.135934-1.808305-.155354-6.509915.135935-.230154h.155353q.213612-1.052113.213612-1.413776 0-.460295-.56316-.92059-.03884-.723327-.368965-2.959062l-.038843-1.183622q-.155354-.8877-.155354-1.775427-.019425-.887714-.213612-3.156313-.427223 0-.54374-.032878l-.116514-.032878q-.097097 0-.427225.197276-.21361.164387-.79619.164387-.116515-.42743-.116515-.723326 0-.723328.52432-1.117856.33013-.230154.446644-.493185zm4.136307 7.397627h.466063q.155354.657572.25245 2.13709l.097097.723326-.038842 2.104213.05825 1.2165q-.291288 1.08499-.291288 1.21651 0 .13151.155355 1.0521l-.077677 2.400135.019417.690438.019425 1.08499q.135935 1.052113.135935 1.249377 0 .263018-.097096.591804l-.504903-.26302q-.116516.39453-.116516.624683 0 .591805.29129.723326.038843.032877.213612.065754.174774.032877.466064.197264-.407805.69045-.621417.953468-.932128 1.183622-.932128 1.90696 0 .098633 1.572963 4.17555-.174774 1.413775-.194193 2.53163l-.466063.361664.097095.328786.485482.29592.038842.328774v4.70161q0 4.372825.097095 4.668722.019426.230153.019426.361663 0 .065755-.097096 1.085002-.019425.328774-.019425.558915 0 .591817.21361 2.69603.01942.197277.01942.39454 0 .29591-.135936.69045l-.79619-.427418q-.213613.52605-.213613.854836 0 1.08499.718515 1.08499h.213612q.019417.723327.116515 1.44664.077677.591818.077677 2.169968 0 .493198.155353 2.43301-.582578.69045-.79619 1.578164l-.56316.39454v.197265l.058252.13151q.194193-.13151.233032-.13151l1.04864.065755q.660255 0 .737933.032877.077677.032876.368966.328785l.27187-.657572q.27187.065755.368966.065755l1.941928-.098632q.038842 0 .330128.23014.194193-.65757.368966-.821958.27187-.197276.81561-.197276h.194193q1.08748 0 1.37877-.197252l.52432-.394553.77677-.39454q1.708897-1.183623 2.097283-1.57815l.621416-.295922q1.048642-.75619 1.165157-.821958.077677 0 .446644-.032878l1.02922-.95347q.699095-.26303.757353-.394552.019417-.098632.038843-.394528.388386-.29591.52432-.39454.679675-.460296 1.747734-1.676796.602-.493185.815612-.72334.135936-.164385 1.92251-2.696016l1.08748-1.44664.563154-1.413777.951546-1.512407q.135937-.197276.34955-.887726.135936-.493172 1.28167-2.82754.019425-.032876.194187-.821945.0777-.29591.40781-1.3809.23303-.78908.252454-1.808303.019427-.591818.42722-2.13709.388383-1.545286.33013-1.906962l.019427-1.512396.17477-1.77544q.058276-1.084976.135936-1.578162.718516-.26303.718516-1.808316 0-.92059-.718517-1.479518-.03877-.85485-.23303-2.334367l-.03885-.95347q-.23303-1.18362-.23303-1.380898 0-.427418.0777-1.08499-.388383-.591804-.75735-1.643917-.563162-1.676795-.601996-1.84118-.019425-.03288-.0777-.920604l-.213606-.36165q-.310706 0-.446642-.065755-.194196-.032877-.699098-.756216.11652-.52604.11652-.887702 0-.230154-.174772-.624707-.29129-.065754-.52432-.065754-.058276 0-.524328.13151h-.03877q-.11652 0-1.184584-1.47952l-.893283-.887725-.582577-.78908-.602-.493173-1.378766-1.2165-.582577-.295895-.504902-.29592-.990382-.230143-.737933-.361664-1.57296-.42743-1.184578-.427406q-1.553542-.460296-1.650638-.55894-.058252-.065755-.388387-.558927-.194193-.29591-.291288-.29591-.174774 0-.466063.263032-.213613.197277-.368967.197277-.019425 0-.660256-.1644l-.79619-.032877-2.058444-.230154-1.670058.098633h-1.223416q-.25245 0-.466063-.1644-.52432-.361662-.582578-.361662-.019417 0-.31071.197265-.155353.098632-.48548.1644-.174774.52605-.174774.690436l.05826 1.183623-.155355.95348q-.077676 1.150745-.213612 1.841194l-.349546-.197276q-.174773.493174-.174773.789082 0 .197264.077677.328786l.135936.26303zM38.98692 53.528272q-.038842-.438385-.090624-.92059 0 .197264.038843-.306877.03884-.504127.103568-1.731582.10357-.241108.14241-.416475.051778-.197252.090622-.350696-.116515-.24111-.181246-.39454-.051787-.175342-.051787-.284942.10357-1.337066.194193-2.542598.012953-.328786.220085-.745237.220085-.416475.595525-.89868.297763-.416463.582578-.701417.284817-.28494.54374-.460295.349547-.197264.414278-.328774.064732-.13151.142408-.13151.20714 0 .31071.350683.116514.35071.116514 1.052113 0 .37263-.116515 1.03019-.10357.657584-.10357.964435 0 .13151.012953 1.008282.02589.876746.064732 2.520675.012953 1.183622.194193 2.520664.194193 1.337067.491956 2.783708.401332 1.88504.867394 2.827552.466062.920578 1.022748.920578.44017 0 1.165157-.964423.724987-.964436 1.708897-2.893294.750878-1.490497 1.333457-2.783706.595524-1.293222.958017-2.367244.336602-.964436.789717-1.731595.453116-.76717 1.035695-1.402808.181246-.175354.29776-.28494.116518-.10955.181248-.10955.23303 0 .349547.591816.129462.591805.129462 1.753517-.077676 1.074022-.129462 2.126123-.116516 1.643917-.349547 3.419344-.220085 1.77544-.582578 3.682388-.181247.964435-.31071 1.687762-.12946.723326-.181245 1.227454-.02589.284942-.077677.723328-.038842.416463-.090624.986345-.12946.547972-.284815 1.095957-.129464.43836-.220087 1.0521-.077677.61374-.142408 1.42473 0 .153433-.012953.394542-.012944.24111-.02589.504128-.297762 2.235734-.60847 4.33996-.02589.19725-.116516.504127-.1683.087715-.388386.372618-.20714.284954-.44017.789082-.23303.438385-.388385.657572-.155355.197263-.23303.197263-.10357 0-.168302-.10955-.064732-.10955-.064732-.372618.012954-.175354.038843-.28494.181247-.745263.31071-2.14806.142407-1.402807.258923-3.4632.012953-.438373.20714-2.367244.194192-1.928858.569632-5.348214.05178-.54796.12946-1.337054.090624-.81099.220086-1.841194.090624-.526038.142408-.898668.064732-.39453.064732-.569895 0-.219187-.051787-.306864-.038842-.10955-.12946-.10955-.077678 0-.284818.35071-.20714.328773-.517848 1.008267-.181247.37262-.37544.789082-.181246.41645-.388385.811002-.349547.613728-.64731 1.161688l-.958017 1.622007q-.129463.13151-.323654.328786-.181247.197277-.44017.460295-.24598.65756-.78972 1.139778-.530792.460295-.98391.460295-.543738 0-1.04864-.569894-.491955-.591805-.958018-1.79735-.20714-.591804-.414278-1.18362-.194192-.591806-.427224-1.183623l-.064732.02196q-.064732.13151-.245978 1.775426-.1683 1.64393-.44017 4.822165-.297762 3.265924-.453116 5.129028-.155354 1.863104-.155354 2.411076-.02589.745236-.1683 1.161712-.129463.394528-.41428.460295-.142407.021835-.40133.13151-.258925.087714-.621418.241108-.064732-.021835-.116515-.065755-.051787-.065754-.051787-.17534l.077677-.811005-.129462-.832914q.077678-.679493.155355-1.31513.051787-1.315144.090624-2.476844.012943-.241108.090622-.811003.090623-.569895.090623-.854836 0-.153432-.038843-.438386-.038842-.30685-.038842-.460282 0-1.205544.220085-3.572788.23303-2.367244.23303-3.594698-.03884-.50414-.090622-1.008268.064732-.78908.20714-1.972703.142407-1.18362.323654-2.761784z" style="line-height:125%;-inkscape-font-specification:'Papyrus, Normal';text-align:start" font-size="55.615559" font-family="Papyrus" fill="#fff" letter-spacing="0" word-spacing="0"/></svg>